<svg xmlns="http://www.w3.org/2000/svg" width="900" height="390" viewBox="0 0 900 390">
<style>
text { font-family: 'Manrope', 'Segoe UI', sans-serif; fill: #112033; }.title { font-size: 26px; font-weight: 800; }.subtitle { font-size: 13px; fill: #627084; }.label { font-size: 14px; }.axis { font-size: 12px; fill: #6d7a8d; }.value { font-size: 14px; font-weight: 700; }
</style>
<rect x="0" y="0" width="900" height="390" rx="28" ry="28" fill="#fffaf4"/>
<text class="title" x="30" y="46">Коммиты по годам</text>
<text class="subtitle" x="30" y="70">Сводная интенсивность по подтверждённым периодам.</text>
<line x1="76" y1="314.0" x2="862" y2="314.0" stroke="#eadfce"/>
<text class="axis" x="20" y="318.0">0</text>
<line x1="76" y1="256.5" x2="862" y2="256.5" stroke="#eadfce"/>
<text class="axis" x="20" y="260.5">1101</text>
<line x1="76" y1="199.0" x2="862" y2="199.0" stroke="#eadfce"/>
<text class="axis" x="20" y="203.0">2203</text>
<line x1="76" y1="141.5" x2="862" y2="141.5" stroke="#eadfce"/>
<text class="axis" x="20" y="145.5">3305</text>
<line x1="76" y1="84.0" x2="862" y2="84.0" stroke="#eadfce"/>
<text class="axis" x="20" y="88.0">4407</text>
<rect x="117.3" y="218.8" width="114.0" height="95.2" rx="16" ry="16" fill="#0f766e"/>
<text class="value" x="129.3" y="208.8">1825</text>
<text class="axis" x="160.2" y="360">2023</text>
<rect x="313.8" y="245.1" width="114.0" height="68.9" rx="16" ry="16" fill="#d97706"/>
<text class="value" x="325.8" y="235.1">1321</text>
<text class="axis" x="356.8" y="360">2024</text>
<rect x="510.3" y="84.0" width="114.0" height="230.0" rx="16" ry="16" fill="#0f766e"/>
<text class="value" x="522.3" y="74.0">4407</text>
<text class="axis" x="553.2" y="360">2025</text>
<rect x="706.8" y="282.0" width="114.0" height="32.0" rx="16" ry="16" fill="#c2410c"/>
<text class="value" x="718.8" y="272.0">613</text>
<text class="axis" x="749.8" y="360">2026</text>
</svg>
