<svg xmlns="http://www.w3.org/2000/svg" width="900" height="380" viewBox="0 0 900 380">
<style>
text { font-family: -apple-system, BlinkMacSystemFont, 'Segoe UI', sans-serif; fill: #17212b; }
.title { font-size: 24px; font-weight: 700; }
.axis { font-size: 12px; fill: #6b7280; }
.value { font-size: 13px; font-weight: 700; }
</style>
<rect x="0" y="0" width="900" height="380" fill="#f7f8fa"/>
<text class="title" x="24" y="42">Commits by Year</text>
<line x1="70" y1="310.0" x2="860" y2="310.0" stroke="#e5e7eb"/>
<text class="axis" x="18" y="314.0">0</text>
<line x1="70" y1="250.0" x2="860" y2="250.0" stroke="#e5e7eb"/>
<text class="axis" x="18" y="254.0">1101</text>
<line x1="70" y1="190.0" x2="860" y2="190.0" stroke="#e5e7eb"/>
<text class="axis" x="18" y="194.0">2203</text>
<line x1="70" y1="130.0" x2="860" y2="130.0" stroke="#e5e7eb"/>
<text class="axis" x="18" y="134.0">3305</text>
<line x1="70" y1="70.0" x2="860" y2="70.0" stroke="#e5e7eb"/>
<text class="axis" x="18" y="74.0">4407</text>
<rect x="114.4" y="210.6" width="108.6" height="99.4" rx="12" ry="12" fill="#2f6fed"/>
<text class="value" x="126.4" y="200.6">1825</text>
<text class="axis" x="154.8" y="352">2023</text>
<rect x="311.9" y="238.1" width="108.6" height="71.9" rx="12" ry="12" fill="#0f9d58"/>
<text class="value" x="323.9" y="228.1">1321</text>
<text class="axis" x="352.2" y="352">2024</text>
<rect x="509.4" y="70.0" width="108.6" height="240.0" rx="12" ry="12" fill="#f59e0b"/>
<text class="value" x="521.4" y="60.0">4407</text>
<text class="axis" x="549.8" y="352">2025</text>
<rect x="706.9" y="276.6" width="108.6" height="33.4" rx="12" ry="12" fill="#d9485f"/>
<text class="value" x="718.9" y="266.6">613</text>
<text class="axis" x="747.2" y="352">2026</text>
</svg>
