<svg xmlns="http://www.w3.org/2000/svg" width="1100" height="420" viewBox="0 0 1100 420">
<style>
text { font-family: -apple-system, BlinkMacSystemFont, 'Segoe UI', sans-serif; fill: #17212b; }
.title { font-size: 24px; font-weight: 700; }
.axis { font-size: 12px; fill: #6b7280; }
</style>
<defs>
<linearGradient id="trendFill" x1="0" x2="0" y1="0" y2="1">
<stop offset="0%" stop-color="#2f6fed" stop-opacity="0.35"/>
<stop offset="100%" stop-color="#2f6fed" stop-opacity="0.03"/>
</linearGradient>
</defs>
<rect x="0" y="0" width="1100" height="420" fill="#f7f8fa"/>
<text class="title" x="24" y="42">Commit Trend by Month</text>
<polyline points="70,350 70.0,134.9 104.5,254.6 139.0,218.3 173.4,200.1 207.9,308.1 242.4,303.0 276.9,346.8 311.4,343.2 345.9,324.0 380.3,306.8 414.8,317.6 449.3,301.3 483.8,297.1 518.3,302.6 552.8,313.7 587.2,307.2 621.7,339.9 656.2,246.2 690.7,227.0 725.2,119.6 759.7,224.1 794.1,249.1 828.6,70.0 863.1,263.7 897.6,236.4 932.1,191.0 966.6,253.0 1001.0,297.8 1035.5,267.6 1070.0,285.8 1070,350" fill="url(#trendFill)" stroke="none"/>
<polyline points="70.0,134.9 104.5,254.6 139.0,218.3 173.4,200.1 207.9,308.1 242.4,303.0 276.9,346.8 311.4,343.2 345.9,324.0 380.3,306.8 414.8,317.6 449.3,301.3 483.8,297.1 518.3,302.6 552.8,313.7 587.2,307.2 621.7,339.9 656.2,246.2 690.7,227.0 725.2,119.6 759.7,224.1 794.1,249.1 828.6,70.0 863.1,263.7 897.6,236.4 932.1,191.0 966.6,253.0 1001.0,297.8 1035.5,267.6 1070.0,285.8" fill="none" stroke="#2f6fed" stroke-width="4" stroke-linecap="round" stroke-linejoin="round"/>
<line x1="70" y1="350.0" x2="1070" y2="350.0" stroke="#e5e7eb"/>
<text class="axis" x="18" y="354.0">0</text>
<line x1="70" y1="280.0" x2="1070" y2="280.0" stroke="#e5e7eb"/>
<text class="axis" x="18" y="284.0">215</text>
<line x1="70" y1="210.0" x2="1070" y2="210.0" stroke="#e5e7eb"/>
<text class="axis" x="18" y="214.0">431</text>
<line x1="70" y1="140.0" x2="1070" y2="140.0" stroke="#e5e7eb"/>
<text class="axis" x="18" y="144.0">647</text>
<line x1="70" y1="70.0" x2="1070" y2="70.0" stroke="#e5e7eb"/>
<text class="axis" x="18" y="74.0">863</text>
<text class="axis" x="52.0" y="396">2023-09</text>
<text class="axis" x="155.4" y="396">2023-12</text>
<text class="axis" x="258.9" y="396">2024-03</text>
<text class="axis" x="362.3" y="396">2024-06</text>
<text class="axis" x="465.8" y="396">2024-09</text>
<text class="axis" x="569.2" y="396">2024-12</text>
<text class="axis" x="672.7" y="396">2025-03</text>
<text class="axis" x="776.1" y="396">2025-06</text>
<text class="axis" x="879.6" y="396">2025-09</text>
<text class="axis" x="983.0" y="396">2026-01</text>
<text class="axis" x="1052.0" y="396">2026-03</text>
<circle cx="70.0" cy="134.9" r="4" fill="#ffffff" stroke="#2f6fed" stroke-width="3"/>
<circle cx="104.5" cy="254.6" r="4" fill="#ffffff" stroke="#2f6fed" stroke-width="3"/>
<circle cx="139.0" cy="218.3" r="4" fill="#ffffff" stroke="#2f6fed" stroke-width="3"/>
<circle cx="173.4" cy="200.1" r="4" fill="#ffffff" stroke="#2f6fed" stroke-width="3"/>
<circle cx="207.9" cy="308.1" r="4" fill="#ffffff" stroke="#2f6fed" stroke-width="3"/>
<circle cx="242.4" cy="303.0" r="4" fill="#ffffff" stroke="#2f6fed" stroke-width="3"/>
<circle cx="276.9" cy="346.8" r="4" fill="#ffffff" stroke="#2f6fed" stroke-width="3"/>
<circle cx="311.4" cy="343.2" r="4" fill="#ffffff" stroke="#2f6fed" stroke-width="3"/>
<circle cx="345.9" cy="324.0" r="4" fill="#ffffff" stroke="#2f6fed" stroke-width="3"/>
<circle cx="380.3" cy="306.8" r="4" fill="#ffffff" stroke="#2f6fed" stroke-width="3"/>
<circle cx="414.8" cy="317.6" r="4" fill="#ffffff" stroke="#2f6fed" stroke-width="3"/>
<circle cx="449.3" cy="301.3" r="4" fill="#ffffff" stroke="#2f6fed" stroke-width="3"/>
<circle cx="483.8" cy="297.1" r="4" fill="#ffffff" stroke="#2f6fed" stroke-width="3"/>
<circle cx="518.3" cy="302.6" r="4" fill="#ffffff" stroke="#2f6fed" stroke-width="3"/>
<circle cx="552.8" cy="313.7" r="4" fill="#ffffff" stroke="#2f6fed" stroke-width="3"/>
<circle cx="587.2" cy="307.2" r="4" fill="#ffffff" stroke="#2f6fed" stroke-width="3"/>
<circle cx="621.7" cy="339.9" r="4" fill="#ffffff" stroke="#2f6fed" stroke-width="3"/>
<circle cx="656.2" cy="246.2" r="4" fill="#ffffff" stroke="#2f6fed" stroke-width="3"/>
<circle cx="690.7" cy="227.0" r="4" fill="#ffffff" stroke="#2f6fed" stroke-width="3"/>
<circle cx="725.2" cy="119.6" r="4" fill="#ffffff" stroke="#2f6fed" stroke-width="3"/>
<circle cx="759.7" cy="224.1" r="4" fill="#ffffff" stroke="#2f6fed" stroke-width="3"/>
<circle cx="794.1" cy="249.1" r="4" fill="#ffffff" stroke="#2f6fed" stroke-width="3"/>
<circle cx="828.6" cy="70.0" r="4" fill="#ffffff" stroke="#2f6fed" stroke-width="3"/>
<circle cx="863.1" cy="263.7" r="4" fill="#ffffff" stroke="#2f6fed" stroke-width="3"/>
<circle cx="897.6" cy="236.4" r="4" fill="#ffffff" stroke="#2f6fed" stroke-width="3"/>
<circle cx="932.1" cy="191.0" r="4" fill="#ffffff" stroke="#2f6fed" stroke-width="3"/>
<circle cx="966.6" cy="253.0" r="4" fill="#ffffff" stroke="#2f6fed" stroke-width="3"/>
<circle cx="1001.0" cy="297.8" r="4" fill="#ffffff" stroke="#2f6fed" stroke-width="3"/>
<circle cx="1035.5" cy="267.6" r="4" fill="#ffffff" stroke="#2f6fed" stroke-width="3"/>
<circle cx="1070.0" cy="285.8" r="4" fill="#ffffff" stroke="#2f6fed" stroke-width="3"/>
</svg>
