<svg xmlns="http://www.w3.org/2000/svg" width="1100" height="342" viewBox="0 0 1100 342">
<style>
text { font-family: -apple-system, BlinkMacSystemFont, 'Segoe UI', sans-serif; fill: #17212b; }
.title { font-size: 24px; font-weight: 700; }
.label { font-size: 14px; }
.value { font-size: 14px; font-weight: 600; }
</style>
<rect x="0" y="0" width="1100" height="342" fill="#f7f8fa"/>
<text class="title" x="24" y="40">Commits by Workstream</text>
<text class="label" x="24" y="87">Project 07 - ArgoCD delivery platform</text>
<rect x="260" y="70" rx="6" ry="6" width="800" height="24" fill="#2f6fed"/>
<text class="value" x="1070" y="87">2953</text>
<text class="label" x="24" y="129">Project 02 - Ops automation / Ansible + Terraform</text>
<rect x="260" y="112" rx="6" ry="6" width="416" height="24" fill="#2f6fed"/>
<text class="value" x="686" y="129">1538</text>
<text class="label" x="24" y="171">Project 01 - GitOps / FluxCD platform</text>
<rect x="260" y="154" rx="6" ry="6" width="350" height="24" fill="#2f6fed"/>
<text class="value" x="620" y="171">1292</text>
<text class="label" x="24" y="213">Project 08 - Helm chart fleet</text>
<rect x="260" y="196" rx="6" ry="6" width="209" height="24" fill="#2f6fed"/>
<text class="value" x="479" y="213">775</text>
<text class="label" x="24" y="255">Project 09 - GitLab templates for bot delivery</text>
<rect x="260" y="238" rx="6" ry="6" width="66" height="24" fill="#2f6fed"/>
<text class="value" x="336" y="255">245</text>
<text class="label" x="24" y="297">Project 10 - Access management platform</text>
<rect x="260" y="280" rx="6" ry="6" width="41" height="24" fill="#2f6fed"/>
<text class="value" x="311" y="297">155</text>
</svg>
