<svg xmlns="http://www.w3.org/2000/svg" width="1100" height="280" viewBox="0 0 1100 280">
<style>
text { font-family: 'Manrope', 'Segoe UI', sans-serif; fill: #112033; }.title { font-size: 26px; font-weight: 800; }.subtitle { font-size: 13px; fill: #627084; }.label { font-size: 14px; }.axis { font-size: 12px; fill: #6d7a8d; }.value { font-size: 14px; font-weight: 700; }
.big { font-size: 31px; font-weight: 800; }
</style>
<rect x="0" y="0" width="1100" height="280" rx="30" ry="30" fill="#fffaf4"/>
<text class="title" x="30" y="46">Снимок портфолио</text>
<text class="subtitle" x="30" y="70">Ключевые числа по масштабу, стабильности и интенсивности поставки изменений.</text>
<rect x="30" y="96" width="245" height="136" rx="24" ry="24" fill="#fff" stroke="#eadfce"/>
<rect x="48" y="114" width="10" height="100" rx="5" ry="5" fill="#0f766e"/>
<text class="label" x="74" y="146">Подтверждённые коммиты</text>
<text class="big" x="74" y="192">8 166</text>
<rect x="293" y="96" width="245" height="136" rx="24" ry="24" fill="#fff" stroke="#eadfce"/>
<rect x="311" y="114" width="10" height="100" rx="5" ry="5" fill="#d97706"/>
<text class="label" x="337" y="146">Активные потоки</text>
<text class="big" x="337" y="192">42</text>
<rect x="556" y="96" width="245" height="136" rx="24" ry="24" fill="#fff" stroke="#eadfce"/>
<rect x="574" y="114" width="10" height="100" rx="5" ry="5" fill="#b45309"/>
<text class="label" x="600" y="146">Сильнейший год</text>
<text class="big" x="600" y="192">2025 / 4 407</text>
<rect x="819" y="96" width="245" height="136" rx="24" ry="24" fill="#fff" stroke="#eadfce"/>
<rect x="837" y="114" width="10" height="100" rx="5" ry="5" fill="#c2410c"/>
<text class="label" x="863" y="146">Пиковый месяц</text>
<text class="big" x="863" y="192">2025-07 / 863</text>
</svg>
