<svg xmlns="http://www.w3.org/2000/svg" width="1100" height="270" viewBox="0 0 1100 270">
<style>
text { font-family: -apple-system, BlinkMacSystemFont, 'Segoe UI', sans-serif; fill: #17212b; }
.title { font-size: 24px; font-weight: 700; }
.label { font-size: 15px; font-weight: 600; fill: #4b5563; }
.value { font-size: 30px; font-weight: 800; }
</style>
<rect x="0" y="0" width="1100" height="270" fill="#f7f8fa"/>
<text class="title" x="24" y="42">Portfolio Snapshot</text>
<text x="24" y="68" fill="#6b7280">High-level numbers that summarise scale, consistency, and delivery intensity.</text>
<rect x="24" y="90" width="245" height="130" rx="18" ry="18" fill="#ffffff" stroke="#e5e7eb"/>
<rect x="42" y="108" width="8" height="94" rx="4" ry="4" fill="#2f6fed"/>
<text class="label" x="64" y="138">Confirmed commits</text>
<text class="value" x="64" y="182">8 166</text>
<rect x="289" y="90" width="245" height="130" rx="18" ry="18" fill="#ffffff" stroke="#e5e7eb"/>
<rect x="307" y="108" width="8" height="94" rx="4" ry="4" fill="#0f9d58"/>
<text class="label" x="329" y="138">Active workstreams</text>
<text class="value" x="329" y="182">42</text>
<rect x="554" y="90" width="245" height="130" rx="18" ry="18" fill="#ffffff" stroke="#e5e7eb"/>
<rect x="572" y="108" width="8" height="94" rx="4" ry="4" fill="#f59e0b"/>
<text class="label" x="594" y="138">Strongest year</text>
<text class="value" x="594" y="182">2025 / 4407</text>
<rect x="819" y="90" width="245" height="130" rx="18" ry="18" fill="#ffffff" stroke="#e5e7eb"/>
<rect x="837" y="108" width="8" height="94" rx="4" ry="4" fill="#d9485f"/>
<text class="label" x="859" y="138">Peak month</text>
<text class="value" x="859" y="182">2025-07 / 863</text>
</svg>
