<svg xmlns="http://www.w3.org/2000/svg" width="1100" height="638" viewBox="0 0 1100 638">
<style>
text { font-family: 'Manrope', 'Segoe UI', sans-serif; fill: #112033; }.title { font-size: 26px; font-weight: 800; }.subtitle { font-size: 13px; fill: #627084; }.label { font-size: 14px; }.axis { font-size: 12px; fill: #6d7a8d; }.value { font-size: 14px; font-weight: 700; }
</style>
<defs>
<linearGradient id="barFill" x1="0" x2="1" y1="0" y2="0">
<stop offset="0%" stop-color="#0f766e"/>
<stop offset="100%" stop-color="#d97706"/>
</linearGradient>
</defs>
<rect x="0" y="0" width="1100" height="638" rx="28" ry="28" fill="#fffaf4"/>
<text class="title" x="30" y="44">Ключевые технологии из skill-матрицы</text>
<text class="subtitle" x="30" y="68">Те инструменты, которые лучше всего совпадают с резюме, git-архивом и публичными артефактами.</text>
<text class="label" x="30" y="103">terraform</text>
<rect x="300" y="86" rx="8" ry="8" width="754" height="24" fill="#efe5d9"/>
<rect x="300" y="86" rx="8" ry="8" width="754" height="24" fill="url(#barFill)"/>
<text class="value" x="1066" y="103">8</text>
<text class="label" x="30" y="147">kubernetes</text>
<rect x="300" y="130" rx="8" ry="8" width="754" height="24" fill="#efe5d9"/>
<rect x="300" y="130" rx="8" ry="8" width="754" height="24" fill="url(#barFill)"/>
<text class="value" x="1066" y="147">8</text>
<text class="label" x="30" y="191">Linux</text>
<rect x="300" y="174" rx="8" ry="8" width="754" height="24" fill="#efe5d9"/>
<rect x="300" y="174" rx="8" ry="8" width="754" height="24" fill="url(#barFill)"/>
<text class="value" x="1066" y="191">8</text>
<text class="label" x="30" y="235">docker</text>
<rect x="300" y="218" rx="8" ry="8" width="754" height="24" fill="#efe5d9"/>
<rect x="300" y="218" rx="8" ry="8" width="754" height="24" fill="url(#barFill)"/>
<text class="value" x="1066" y="235">8</text>
<text class="label" x="30" y="279">gitlab-ci</text>
<rect x="300" y="262" rx="8" ry="8" width="754" height="24" fill="#efe5d9"/>
<rect x="300" y="262" rx="8" ry="8" width="754" height="24" fill="url(#barFill)"/>
<text class="value" x="1066" y="279">8</text>
<text class="label" x="30" y="323">git</text>
<rect x="300" y="306" rx="8" ry="8" width="754" height="24" fill="#efe5d9"/>
<rect x="300" y="306" rx="8" ry="8" width="754" height="24" fill="url(#barFill)"/>
<text class="value" x="1066" y="323">8</text>
<text class="label" x="30" y="367">prometheus</text>
<rect x="300" y="350" rx="8" ry="8" width="754" height="24" fill="#efe5d9"/>
<rect x="300" y="350" rx="8" ry="8" width="754" height="24" fill="url(#barFill)"/>
<text class="value" x="1066" y="367">8</text>
<text class="label" x="30" y="411">grafana</text>
<rect x="300" y="394" rx="8" ry="8" width="754" height="24" fill="#efe5d9"/>
<rect x="300" y="394" rx="8" ry="8" width="754" height="24" fill="url(#barFill)"/>
<text class="value" x="1066" y="411">8</text>
<text class="label" x="30" y="455">ansible</text>
<rect x="300" y="438" rx="8" ry="8" width="754" height="24" fill="#efe5d9"/>
<rect x="300" y="438" rx="8" ry="8" width="659" height="24" fill="url(#barFill)"/>
<text class="value" x="971" y="455">7</text>
<text class="label" x="30" y="499">hashicorp vault</text>
<rect x="300" y="482" rx="8" ry="8" width="754" height="24" fill="#efe5d9"/>
<rect x="300" y="482" rx="8" ry="8" width="659" height="24" fill="url(#barFill)"/>
<text class="value" x="971" y="499">7</text>
<text class="label" x="30" y="543">postgresql</text>
<rect x="300" y="526" rx="8" ry="8" width="754" height="24" fill="#efe5d9"/>
<rect x="300" y="526" rx="8" ry="8" width="659" height="24" fill="url(#barFill)"/>
<text class="value" x="971" y="543">7</text>
<text class="label" x="30" y="587">Python</text>
<rect x="300" y="570" rx="8" ry="8" width="754" height="24" fill="#efe5d9"/>
<rect x="300" y="570" rx="8" ry="8" width="659" height="24" fill="url(#barFill)"/>
<text class="value" x="971" y="587">7</text>
</svg>
