<svg xmlns="http://www.w3.org/2000/svg" width="1100" height="384" viewBox="0 0 1100 384">
<style>
text { font-family: -apple-system, BlinkMacSystemFont, 'Segoe UI', sans-serif; fill: #17212b; }
.title { font-size: 24px; font-weight: 700; }
.label { font-size: 14px; }
.value { font-size: 14px; font-weight: 600; }
</style>
<rect x="0" y="0" width="1100" height="384" fill="#f7f8fa"/>
<text class="title" x="24" y="40">Tech Coverage by Workstream</text>
<text class="label" x="24" y="87">GitLab CI</text>
<rect x="260" y="70" rx="6" ry="6" width="800" height="24" fill="#2f6fed"/>
<text class="value" x="1070" y="87">26</text>
<text class="label" x="24" y="129">Kubernetes</text>
<rect x="260" y="112" rx="6" ry="6" width="738" height="24" fill="#2f6fed"/>
<text class="value" x="1008" y="129">24</text>
<text class="label" x="24" y="171">Helm</text>
<rect x="260" y="154" rx="6" ry="6" width="584" height="24" fill="#2f6fed"/>
<text class="value" x="854" y="171">19</text>
<text class="label" x="24" y="213">Terraform</text>
<rect x="260" y="196" rx="6" ry="6" width="276" height="24" fill="#2f6fed"/>
<text class="value" x="546" y="213">9</text>
<text class="label" x="24" y="255">Docker</text>
<rect x="260" y="238" rx="6" ry="6" width="153" height="24" fill="#2f6fed"/>
<text class="value" x="423" y="255">5</text>
<text class="label" x="24" y="297">Terragrunt</text>
<rect x="260" y="280" rx="6" ry="6" width="123" height="24" fill="#2f6fed"/>
<text class="value" x="393" y="297">4</text>
<text class="label" x="24" y="339">Ansible</text>
<rect x="260" y="322" rx="6" ry="6" width="92" height="24" fill="#2f6fed"/>
<text class="value" x="362" y="339">3</text>
</svg>
