<svg xmlns="http://www.w3.org/2000/svg" width="1200" height="480" viewBox="0 0 1200 480">
<style>
text { font-family: 'Manrope', 'Segoe UI', sans-serif; fill: #112033; }.title { font-size: 26px; font-weight: 800; }.subtitle { font-size: 13px; fill: #627084; }.label { font-size: 14px; }.axis { font-size: 12px; fill: #6d7a8d; }.value { font-size: 14px; font-weight: 700; }
</style>
<rect x="0" y="0" width="1200" height="480" rx="28" ry="28" fill="#fffaf4"/>
<text class="title" x="30" y="46">Ключевые рабочие потоки во времени</text>
<text class="subtitle" x="30" y="70">Видно, какие направления шли дольше и где был самый плотный вклад.</text>
<line x1="409.7" y1="88" x2="409.7" y2="446" stroke="#eadfce"/>
<text class="axis" x="395.7" y="78">2024</text>
<line x1="749.9" y1="88" x2="749.9" y2="446" stroke="#eadfce"/>
<text class="axis" x="735.9" y="78">2025</text>
<line x1="1089.2" y1="88" x2="1089.2" y2="446" stroke="#eadfce"/>
<text class="axis" x="1075.2" y="78">2026</text>
<text class="label" x="30" y="106">Project 07 - ArgoCD delivery platform</text>
<rect x="788.0" y="92" width="242.6" height="18.0" rx="10" ry="10" fill="#0f766e" opacity="0.88"/>
<circle cx="788.0" cy="101.0" r="5" fill="#fffaf4" stroke="#0f766e" stroke-width="3"/>
<circle cx="1030.6" cy="101.0" r="5" fill="#fffaf4" stroke="#0f766e" stroke-width="3"/>
<text class="value" x="1040.6" y="104">2953 коммитов</text>
<text class="label" x="30" y="154">Project 02 - Ops automation / Ansible + Terraform</text>
<rect x="300.0" y="140" width="725.1" height="14.2" rx="10" ry="10" fill="#0f766e" opacity="0.88"/>
<circle cx="300.0" cy="147.1" r="5" fill="#fffaf4" stroke="#0f766e" stroke-width="3"/>
<circle cx="1025.1" cy="147.1" r="5" fill="#fffaf4" stroke="#0f766e" stroke-width="3"/>
<text class="value" x="1035.1" y="152">1538 коммитов</text>
<text class="label" x="30" y="202">Project 01 - GitOps / FluxCD platform</text>
<rect x="302.8" y="188" width="160.8" height="13.5" rx="10" ry="10" fill="#0f766e" opacity="0.88"/>
<circle cx="302.8" cy="194.8" r="5" fill="#fffaf4" stroke="#0f766e" stroke-width="3"/>
<circle cx="463.6" cy="194.8" r="5" fill="#fffaf4" stroke="#0f766e" stroke-width="3"/>
<text class="value" x="473.6" y="200">1292 коммитов</text>
<text class="label" x="30" y="250">Project 08 - Helm chart fleet</text>
<rect x="302.8" y="236" width="726.9" height="12.1" rx="10" ry="10" fill="#0f766e" opacity="0.88"/>
<circle cx="302.8" cy="242.0" r="5" fill="#fffaf4" stroke="#0f766e" stroke-width="3"/>
<circle cx="1029.7" cy="242.0" r="5" fill="#fffaf4" stroke="#0f766e" stroke-width="3"/>
<text class="value" x="1039.7" y="248">775 коммитов</text>
<text class="label" x="30" y="298">Project 09 - GitLab templates for bot delivery</text>
<rect x="386.5" y="284" width="579.1" height="10.7" rx="10" ry="10" fill="#0f766e" opacity="0.88"/>
<circle cx="386.5" cy="289.3" r="5" fill="#fffaf4" stroke="#0f766e" stroke-width="3"/>
<circle cx="965.6" cy="289.3" r="5" fill="#fffaf4" stroke="#0f766e" stroke-width="3"/>
<text class="value" x="975.6" y="296">245 коммитов</text>
<text class="label" x="30" y="346">Project 10 - Access management platform</text>
<rect x="1077.1" y="332" width="65.1" height="10.4" rx="10" ry="10" fill="#0f766e" opacity="0.88"/>
<circle cx="1077.1" cy="337.2" r="5" fill="#fffaf4" stroke="#0f766e" stroke-width="3"/>
<circle cx="1142.2" cy="337.2" r="5" fill="#fffaf4" stroke="#0f766e" stroke-width="3"/>
<text class="value" x="1152.2" y="344">155 коммитов</text>
<text class="label" x="30" y="394">Project 11 - Kubernetes platform box</text>
<rect x="1145.0" y="380" width="13.0" height="10.3" rx="10" ry="10" fill="#0f766e" opacity="0.88"/>
<circle cx="1145.0" cy="385.2" r="5" fill="#fffaf4" stroke="#0f766e" stroke-width="3"/>
<circle cx="1158.0" cy="385.2" r="5" fill="#fffaf4" stroke="#0f766e" stroke-width="3"/>
<text class="value" x="1168.0" y="392">122 коммитов</text>
<text class="label" x="30" y="442">Project 12 - Infrastructure as Code modules</text>
<rect x="852.2" y="428" width="172.9" height="10.3" rx="10" ry="10" fill="#0f766e" opacity="0.88"/>
<circle cx="852.2" cy="433.2" r="5" fill="#fffaf4" stroke="#0f766e" stroke-width="3"/>
<circle cx="1025.1" cy="433.2" r="5" fill="#fffaf4" stroke="#0f766e" stroke-width="3"/>
<text class="value" x="1035.1" y="440">118 коммитов</text>
</svg>
