<svg xmlns="http://www.w3.org/2000/svg" width="1200" height="448" viewBox="0 0 1200 448">
<style>
text { font-family: -apple-system, BlinkMacSystemFont, 'Segoe UI', sans-serif; fill: #17212b; }
.title { font-size: 24px; font-weight: 700; }
.label { font-size: 13px; }
.axis { font-size: 12px; fill: #6b7280; }
.value { font-size: 12px; font-weight: 700; }
</style>
<rect x="0" y="0" width="1200" height="448" fill="#f7f8fa"/>
<text class="title" x="24" y="42">Top Workstream Timelines</text>
<line x1="392.5" y1="72" x2="392.5" y2="418" stroke="#e5e7eb"/>
<text class="axis" x="378.5" y="62">2024</text>
<line x1="741.5" y1="72" x2="741.5" y2="418" stroke="#e5e7eb"/>
<text class="axis" x="727.5" y="62">2025</text>
<line x1="1089.4" y1="72" x2="1089.4" y2="418" stroke="#e5e7eb"/>
<text class="axis" x="1075.4" y="62">2026</text>
<text class="label" x="24" y="90">Project 07 - ArgoCD delivery platform</text>
<rect x="780.5" y="76" width="248.8" height="18.0" rx="8" ry="8" fill="#2f6fed" opacity="0.85"/>
<circle cx="780.5" cy="85.0" r="5" fill="#ffffff" stroke="#2f6fed" stroke-width="3"/>
<circle cx="1029.4" cy="85.0" r="5" fill="#ffffff" stroke="#2f6fed" stroke-width="3"/>
<text class="value" x="1039.4" y="88">2953 commits</text>
<text class="label" x="24" y="136">Project 02 - Ops automation / Ansible + Terraform</text>
<rect x="280.0" y="122" width="743.7" height="14.2" rx="8" ry="8" fill="#2f6fed" opacity="0.85"/>
<circle cx="280.0" cy="129.1" r="5" fill="#ffffff" stroke="#2f6fed" stroke-width="3"/>
<circle cx="1023.7" cy="129.1" r="5" fill="#ffffff" stroke="#2f6fed" stroke-width="3"/>
<text class="value" x="1033.7" y="134">1538 commits</text>
<text class="label" x="24" y="182">Project 01 - GitOps / FluxCD platform</text>
<rect x="282.9" y="168" width="164.9" height="13.5" rx="8" ry="8" fill="#2f6fed" opacity="0.85"/>
<circle cx="282.9" cy="174.8" r="5" fill="#ffffff" stroke="#2f6fed" stroke-width="3"/>
<circle cx="447.8" cy="174.8" r="5" fill="#ffffff" stroke="#2f6fed" stroke-width="3"/>
<text class="value" x="457.8" y="180">1292 commits</text>
<text class="label" x="24" y="228">Project 08 - Helm chart fleet</text>
<rect x="282.9" y="214" width="745.6" height="12.1" rx="8" ry="8" fill="#2f6fed" opacity="0.85"/>
<circle cx="282.9" cy="220.0" r="5" fill="#ffffff" stroke="#2f6fed" stroke-width="3"/>
<circle cx="1028.4" cy="220.0" r="5" fill="#ffffff" stroke="#2f6fed" stroke-width="3"/>
<text class="value" x="1038.4" y="226">775 commits</text>
<text class="label" x="24" y="274">Project 09 - GitLab templates for bot delivery</text>
<rect x="368.7" y="260" width="594.0" height="10.7" rx="8" ry="8" fill="#2f6fed" opacity="0.85"/>
<circle cx="368.7" cy="265.3" r="5" fill="#ffffff" stroke="#2f6fed" stroke-width="3"/>
<circle cx="962.6" cy="265.3" r="5" fill="#ffffff" stroke="#2f6fed" stroke-width="3"/>
<text class="value" x="972.6" y="272">245 commits</text>
<text class="label" x="24" y="320">Project 10 - Access management platform</text>
<rect x="1077.1" y="306" width="66.7" height="10.4" rx="8" ry="8" fill="#2f6fed" opacity="0.85"/>
<circle cx="1077.1" cy="311.2" r="5" fill="#ffffff" stroke="#2f6fed" stroke-width="3"/>
<circle cx="1143.8" cy="311.2" r="5" fill="#ffffff" stroke="#2f6fed" stroke-width="3"/>
<text class="value" x="1153.8" y="318">155 commits</text>
<text class="label" x="24" y="366">Project 11 - Kubernetes platform box</text>
<rect x="1146.7" y="352" width="13.3" height="10.3" rx="8" ry="8" fill="#2f6fed" opacity="0.85"/>
<circle cx="1146.7" cy="357.2" r="5" fill="#ffffff" stroke="#2f6fed" stroke-width="3"/>
<circle cx="1160.0" cy="357.2" r="5" fill="#ffffff" stroke="#2f6fed" stroke-width="3"/>
<text class="value" x="1170.0" y="364">122 commits</text>
<text class="label" x="24" y="412">Project 12 - Infrastructure as Code modules</text>
<rect x="846.3" y="398" width="177.3" height="10.3" rx="8" ry="8" fill="#2f6fed" opacity="0.85"/>
<circle cx="846.3" cy="403.2" r="5" fill="#ffffff" stroke="#2f6fed" stroke-width="3"/>
<circle cx="1023.7" cy="403.2" r="5" fill="#ffffff" stroke="#2f6fed" stroke-width="3"/>
<text class="value" x="1033.7" y="410">118 commits</text>
</svg>
